<svg width="21" height="20" viewBox="0 0 21 20" fill="none" xmlns="http://www.w3.org/2000/svg">
<path fill-rule="evenodd" clip-rule="evenodd" d="M14.7486 7.60549L10.1806 13.6055C9.99261 13.8525 9.70161 13.9985 9.39161 14.0005H9.38461C9.07761 14.0005 8.78761 13.8585 8.59761 13.6165L6.16561 10.5095C5.82561 10.0755 5.90161 9.44649 6.33661 9.10649C6.77061 8.76549 7.40061 8.84149 7.74061 9.27749L9.37361 11.3635L13.1576 6.39449C13.4916 5.95549 14.1186 5.86949 14.5596 6.20449C14.9986 6.53949 15.0836 7.16649 14.7486 7.60549ZM10.4536 0.000488281C4.93061 0.000488281 0.453613 4.47749 0.453613 10.0005C0.453613 15.5225 4.93061 20.0005 10.4536 20.0005C15.9766 20.0005 20.4536 15.5225 20.4536 10.0005C20.4536 4.47749 15.9766 0.000488281 10.4536 0.000488281Z" fill="#C5F2E0"/>
</svg>
