<svg width="16" height="16" viewBox="0 0 16 16" fill="none" xmlns="http://www.w3.org/2000/svg">
<g clip-path="url(#clip0_4736_2375)">
<path d="M4.66634 3.33341V1.33341C4.66634 1.1566 4.73658 0.987034 4.8616 0.86201C4.98663 0.736986 5.1562 0.666748 5.33301 0.666748H10.6663C10.8432 0.666748 11.0127 0.736986 11.1377 0.86201C11.2628 0.987034 11.333 1.1566 11.333 1.33341V3.33341H13.9997C14.1765 3.33341 14.3461 3.40365 14.4711 3.52868C14.5961 3.6537 14.6663 3.82327 14.6663 4.00008V13.3334C14.6663 13.5102 14.5961 13.6798 14.4711 13.8048C14.3461 13.9298 14.1765 14.0001 13.9997 14.0001H1.99967C1.82286 14.0001 1.65329 13.9298 1.52827 13.8048C1.40325 13.6798 1.33301 13.5102 1.33301 13.3334V4.00008C1.33301 3.82327 1.40325 3.6537 1.52827 3.52868C1.65329 3.40365 1.82286 3.33341 1.99967 3.33341H4.66634ZM5.99967 8.66675H2.66634V12.6667H13.333V8.66675H9.99967V10.6667H5.99967V8.66675ZM13.333 4.66675H2.66634V7.33341H5.99967V6.00008H9.99967V7.33341H13.333V4.66675ZM7.33301 7.33341V9.33341H8.66634V7.33341H7.33301ZM5.99967 2.00008V3.33341H9.99967V2.00008H5.99967Z" fill="#00995D"/>
</g>
<defs>
<clipPath id="clip0_4736_2375">
<rect width="16" height="16" fill="white"/>
</clipPath>
</defs>
</svg>
