<svg width="16" height="16" viewBox="0 0 16 16" fill="none" xmlns="http://www.w3.org/2000/svg">
<path fill-rule="evenodd" clip-rule="evenodd" d="M10.6663 10.6666C10.6663 11.0333 10.3663 11.3333 9.99967 11.3333C9.63301 11.3333 9.33301 11.0333 9.33301 10.6666V7.99992C9.33301 7.63325 9.63301 7.33325 9.99967 7.33325C10.3663 7.33325 10.6663 7.63325 10.6663 7.99992V10.6666ZM6.66634 2.88525C6.66634 2.78192 6.80901 2.66659 6.99967 2.66659H8.99967C9.19034 2.66659 9.33301 2.78192 9.33301 2.88525V3.99992H6.66634V2.88525ZM6.66634 10.6666C6.66634 11.0333 6.36634 11.3333 5.99967 11.3333C5.63301 11.3333 5.33301 11.0333 5.33301 10.6666V7.99992C5.33301 7.63325 5.63301 7.33325 5.99967 7.33325C6.36634 7.33325 6.66634 7.63325 6.66634 7.99992V10.6666ZM13.9997 3.99992H13.333H10.6663V2.88525C10.6663 2.02925 9.91901 1.33325 8.99967 1.33325H6.99967C6.08034 1.33325 5.33301 2.02925 5.33301 2.88525V3.99992H2.66634H1.99967C1.63301 3.99992 1.33301 4.29992 1.33301 4.66659C1.33301 5.03325 1.63301 5.33325 1.99967 5.33325H2.66634V12.6666C2.66634 13.7693 3.56367 14.6666 4.66634 14.6666H11.333C12.4357 14.6666 13.333 13.7693 13.333 12.6666V5.33325H13.9997C14.3663 5.33325 14.6663 5.03325 14.6663 4.66659C14.6663 4.29992 14.3663 3.99992 13.9997 3.99992Z" fill="#EB5757"/>
</svg>
