<svg width="11" height="14" viewBox="0 0 11 14" fill="none" xmlns="http://www.w3.org/2000/svg">
<g filter="url(#filter0_d_4152_37609)">
<path d="M8.97656 7.34766C9.46875 7.73047 9.84245 8.21354 10.0977 8.79688C10.3529 9.36198 10.444 9.97266 10.3711 10.6289C10.2799 11.5768 9.86068 12.3698 9.11328 13.0078C8.36589 13.6458 7.5 13.9648 6.51562 13.9648H0.800781C0.673177 13.9648 0.563802 13.9193 0.472656 13.8281C0.39974 13.7552 0.363281 13.6549 0.363281 13.5273V12.2148C0.363281 12.0872 0.39974 11.987 0.472656 11.9141C0.563802 11.8229 0.673177 11.7773 0.800781 11.7773H1.67578V3.90234H0.800781C0.673177 3.90234 0.563802 3.86589 0.472656 3.79297C0.39974 3.70182 0.363281 3.59245 0.363281 3.46484V2.15234C0.363281 2.02474 0.39974 1.92448 0.472656 1.85156C0.563802 1.76042 0.673177 1.71484 0.800781 1.71484H6.24219C7.28125 1.71484 8.14714 2.09766 8.83984 2.86328C9.53255 3.62891 9.82422 4.53125 9.71484 5.57031C9.66016 6.22656 9.41406 6.81901 8.97656 7.34766ZM3.86328 3.90234V6.52734H6.24219C6.60677 6.52734 6.91667 6.39974 7.17188 6.14453C7.42708 5.88932 7.55469 5.57943 7.55469 5.21484C7.55469 4.85026 7.42708 4.54036 7.17188 4.28516C6.91667 4.02995 6.60677 3.90234 6.24219 3.90234H3.86328ZM6.24219 11.7773C6.67969 11.7773 7.04427 11.6315 7.33594 11.3398C7.6276 11.0299 7.77344 10.6654 7.77344 10.2461C7.77344 9.82682 7.6276 9.47135 7.33594 9.17969C7.04427 8.86979 6.67969 8.71484 6.24219 8.71484H3.86328V11.7773H6.24219Z" fill="black"/>
</g>
<defs>
<filter id="filter0_d_4152_37609" x="0.363281" y="0.714844" width="10.1172" height="13.25" filterUnits="userSpaceOnUse" color-interpolation-filters="sRGB">
<feFlood flood-opacity="0" result="BackgroundImageFix"/>
<feColorMatrix in="SourceAlpha" type="matrix" values="0 0 0 0 0 0 0 0 0 0 0 0 0 0 0 0 0 0 127 0" result="hardAlpha"/>
<feOffset dy="-1"/>
<feColorMatrix type="matrix" values="0 0 0 0 1 0 0 0 0 1 0 0 0 0 1 0 0 0 1 0"/>
<feBlend mode="normal" in2="BackgroundImageFix" result="effect1_dropShadow_4152_37609"/>
<feBlend mode="normal" in="SourceGraphic" in2="effect1_dropShadow_4152_37609" result="shape"/>
</filter>
</defs>
</svg>
