<svg width="10" height="13" viewBox="0 0 10 13" fill="none" xmlns="http://www.w3.org/2000/svg">
<path d="M0.245117 4.83664V0.134766H1.80257V4.83664C1.80257 5.66798 2.13074 6.46528 2.7149 7.05313C3.29906 7.64097 4.09135 7.97122 4.91747 7.97122C5.74359 7.97122 6.53588 7.64097 7.12004 7.05313C7.70419 6.46528 8.03237 5.66798 8.03237 4.83664V0.134766H9.58982V4.83664C9.58982 6.08366 9.09756 7.2796 8.22132 8.16137C7.34508 9.04314 6.15665 9.53852 4.91747 9.53852C3.67828 9.53852 2.48985 9.04314 1.61362 8.16137C0.737381 7.2796 0.245117 6.08366 0.245117 4.83664Z" fill="black"/>
<path d="M1.02384 11.1074C0.817312 11.1074 0.61924 11.19 0.473201 11.3369C0.327161 11.4839 0.245117 11.6832 0.245117 11.8911C0.245117 12.0989 0.327161 12.2982 0.473201 12.4452C0.61924 12.5922 0.817312 12.6747 1.02384 12.6747H8.81109C9.01762 12.6747 9.2157 12.5922 9.36174 12.4452C9.50778 12.2982 9.58982 12.0989 9.58982 11.8911C9.58982 11.6832 9.50778 11.4839 9.36174 11.3369C9.2157 11.19 9.01762 11.1074 8.81109 11.1074H1.02384Z" fill="black"/>
</svg>
