<svg width="9" height="14" viewBox="0 0 9 14" fill="none" xmlns="http://www.w3.org/2000/svg">
<g filter="url(#filter0_d_4152_37610)">
<path d="M8.84668 2.15234V3.02734C8.84668 3.15495 8.80111 3.26432 8.70996 3.35547C8.63704 3.42839 8.53678 3.46484 8.40918 3.46484H6.68652L4.49902 12.2148H5.78418C5.91178 12.2148 6.01204 12.2604 6.08496 12.3516C6.17611 12.4245 6.22168 12.5247 6.22168 12.6523V13.5273C6.22168 13.6549 6.17611 13.7552 6.08496 13.8281C6.01204 13.9193 5.91178 13.9648 5.78418 13.9648H0.53418C0.406576 13.9648 0.297201 13.9193 0.206055 13.8281C0.133138 13.7552 0.0966797 13.6549 0.0966797 13.5273V12.6523C0.0966797 12.5247 0.133138 12.4245 0.206055 12.3516C0.297201 12.2604 0.406576 12.2148 0.53418 12.2148H2.25684L4.44434 3.46484H3.15918C3.03158 3.46484 2.9222 3.42839 2.83105 3.35547C2.75814 3.26432 2.72168 3.15495 2.72168 3.02734V2.15234C2.72168 2.02474 2.75814 1.92448 2.83105 1.85156C2.9222 1.76042 3.03158 1.71484 3.15918 1.71484H8.40918C8.53678 1.71484 8.63704 1.76042 8.70996 1.85156C8.80111 1.92448 8.84668 2.02474 8.84668 2.15234Z" fill="black"/>
</g>
<defs>
<filter id="filter0_d_4152_37610" x="0.0966797" y="0.714844" width="8.75" height="13.25" filterUnits="userSpaceOnUse" color-interpolation-filters="sRGB">
<feFlood flood-opacity="0" result="BackgroundImageFix"/>
<feColorMatrix in="SourceAlpha" type="matrix" values="0 0 0 0 0 0 0 0 0 0 0 0 0 0 0 0 0 0 127 0" result="hardAlpha"/>
<feOffset dy="-1"/>
<feColorMatrix type="matrix" values="0 0 0 0 1 0 0 0 0 1 0 0 0 0 1 0 0 0 1 0"/>
<feBlend mode="normal" in2="BackgroundImageFix" result="effect1_dropShadow_4152_37610"/>
<feBlend mode="normal" in="SourceGraphic" in2="effect1_dropShadow_4152_37610" result="shape"/>
</filter>
</defs>
</svg>
