<svg width="13" height="13" viewBox="0 0 13 13" fill="none" xmlns="http://www.w3.org/2000/svg">
<path d="M7.97942 4.54003C9.43337 6.00469 9.41342 8.3529 7.98818 9.7951C7.9855 9.79804 7.98234 9.80122 7.97942 9.80416L6.3441 11.4498C4.90175 12.9013 2.55514 12.9011 1.11301 11.4498C-0.329336 9.9986 -0.329336 7.6369 1.11301 6.18568L2.01599 5.277C2.25545 5.03603 2.66783 5.19619 2.68019 5.53673C2.69596 5.97072 2.7733 6.40674 2.916 6.82781C2.96433 6.97038 2.9298 7.12809 2.82394 7.23462L2.50547 7.5551C1.82345 8.24143 1.80206 9.35895 2.47736 10.052C3.15933 10.7519 4.28026 10.756 4.96746 10.0645L6.60278 8.41907C7.28881 7.7287 7.28594 6.61284 6.60278 5.92537C6.51271 5.83491 6.42199 5.76462 6.35113 5.71552C6.301 5.68088 6.2596 5.63492 6.23025 5.58133C6.2009 5.52773 6.1844 5.46797 6.18207 5.40681C6.17244 5.14804 6.26355 4.88138 6.46675 4.6769L6.9791 4.16129C7.11345 4.02608 7.32422 4.00948 7.48001 4.1189C7.65843 4.24427 7.82554 4.38519 7.97942 4.54003ZM11.4091 1.08852C9.96697 -0.362742 7.62035 -0.362937 6.17801 1.08852L4.54269 2.73417C4.53977 2.73711 4.5366 2.74029 4.53393 2.74323C3.10871 4.18543 3.08873 6.53365 4.54269 7.9983C4.69655 8.15314 4.86366 8.29405 5.04207 8.41941C5.19786 8.52883 5.40865 8.5122 5.54298 8.37702L6.05534 7.86141C6.25853 7.65693 6.34964 7.39027 6.34001 7.13149C6.33768 7.07034 6.32118 7.01058 6.29183 6.95698C6.26248 6.90338 6.22108 6.85743 6.17095 6.82279C6.10009 6.77369 6.00937 6.7034 5.9193 6.61294C5.23614 5.92546 5.23327 4.8096 5.9193 4.11924L7.55462 2.47383C8.24183 1.78229 9.36273 1.78645 10.0447 2.48632C10.72 3.17935 10.6987 4.29688 10.0166 4.98321L9.69814 5.30369C9.59228 5.41022 9.55775 5.56793 9.60608 5.7105C9.74878 6.13156 9.82612 6.56759 9.84189 7.00158C9.85427 7.34212 10.2666 7.50228 10.5061 7.26131L11.4091 6.35262C12.8514 4.90144 12.8514 2.53973 11.4091 1.08852Z" fill="black"/>
</svg>
