<svg width="13" height="12" viewBox="0 0 13 12" fill="none" xmlns="http://www.w3.org/2000/svg">
<path d="M5.08736 4.79172L3.8414 6.04555H3.21842V4.79172H5.08736ZM11.0929 2.50974L12.5631 1.03022L11.6286 0.0898438L1.03799 10.7474L1.97246 11.6878L7.57928 6.04555H9.44822V4.79172H8.82524L10.0712 3.53789C10.7583 3.53789 11.3172 4.10023 11.3172 4.79172V6.04555C11.3172 6.73704 10.7583 7.29939 10.0712 7.29939H6.97063C7.53941 8.0567 8.43276 8.55322 9.44822 8.55322H10.0712C11.448 8.55322 12.5631 7.43104 12.5631 6.04555V4.79172C12.5631 3.77423 11.9588 2.90282 11.0929 2.50974ZM1.57375 8.32753L2.59544 7.29939C1.90829 7.29939 1.34948 6.73704 1.34948 6.04555V4.79172C1.34948 4.10023 1.90829 3.53789 2.59544 3.53789H5.69601C5.12785 2.78057 4.23387 2.28405 3.21842 2.28405H2.59544C1.21865 2.28405 0.103516 3.40623 0.103516 4.79172V6.04555C0.103516 7.06304 0.707806 7.93445 1.57375 8.32753Z" fill="#828282"/>
</svg>
