<svg width="12" height="11" viewBox="0 0 12 11" fill="none" xmlns="http://www.w3.org/2000/svg">
<path d="M11.6244 5.43036V6.47522H9.34536C9.86451 7.59322 9.83855 10.6547 6.11105 10.6547C1.78653 10.6808 1.95266 7.25887 1.95266 7.25887L4.01369 7.28499C4.02926 9.04558 5.6542 9.04558 5.97608 9.02468C6.30833 8.99856 7.5491 9.00378 7.64774 7.7813C7.68927 7.21185 7.11821 6.77823 6.49523 6.47522H0.203125V5.43036H11.6244ZM9.76068 3.28317L7.69446 3.2675C7.69446 3.2675 7.78272 1.82036 5.99165 1.81514C4.20058 1.80469 4.35633 2.96449 4.35633 3.11077C4.37709 3.25705 4.53284 3.978 5.91378 4.32281H2.64832C2.64832 4.32281 0.836488 0.806848 5.25965 0.206053C9.78145 -0.420864 9.77106 3.29362 9.76068 3.28317Z" fill="black"/>
</svg>
