<svg width="13" height="11" viewBox="0 0 13 11" fill="none" xmlns="http://www.w3.org/2000/svg">
<path d="M8.68577 1.12519L5.48188 4.34933L8.68577 7.57347L7.70157 8.5639L4.49767 5.33975L1.29377 8.5639L0.30957 7.57347L3.51347 4.34933L0.30957 1.12519L1.29377 0.134766L4.49767 3.35891L7.70157 0.134766L8.68577 1.12519ZM12.7692 10.6923H9.36285V9.98983L9.98409 9.42788C10.5146 8.97131 10.9055 8.592 11.1707 8.28293C11.429 7.97386 11.5616 7.68586 11.5686 7.41192C11.5743 7.32113 11.5604 7.23018 11.5278 7.14531C11.4953 7.06044 11.4449 6.98365 11.3801 6.92022C11.2545 6.80783 11.0521 6.72354 10.7798 6.72354C10.5634 6.72354 10.375 6.76568 10.1935 6.84997L9.7328 7.1169L9.41869 6.29506C9.60716 6.14755 9.83052 6.02111 10.1027 5.92277C10.375 5.82443 10.6751 5.75419 11.0032 5.75419C11.5476 5.78228 11.9665 5.92979 12.2457 6.21779C12.5249 6.50578 12.6784 6.87105 12.6784 7.3206C12.6714 7.71396 12.5458 8.07922 12.3015 8.40936C12.0642 8.7395 11.771 9.0556 11.415 9.36467L10.9683 9.72993V9.74398H12.7692V10.6923Z" fill="black"/>
</svg>
