<svg width="13" height="12" viewBox="0 0 13 12" fill="none" xmlns="http://www.w3.org/2000/svg">
<path d="M8.61351 3.88998L5.40961 7.11412L8.61351 10.3383L7.6293 11.3287L4.42541 8.10454L1.22151 11.3287L0.237305 10.3383L3.4412 7.11412L0.237305 3.88998L1.22151 2.89955L4.42541 6.1237L7.6293 2.89955L8.61351 3.88998ZM12.6969 5.00684H9.29058V4.30441L9.91182 3.72842C10.4423 3.27886 10.8332 2.89955 11.0984 2.58346C11.3567 2.27439 11.4893 1.9864 11.4963 1.71948C11.5027 1.62862 11.4891 1.53748 11.4565 1.45251C11.4239 1.36753 11.3732 1.29081 11.3079 1.22778C11.1822 1.09432 10.9798 1.0311 10.7076 1.02407C10.4912 1.0311 10.3027 1.07324 10.1212 1.14349L9.66053 1.41743L9.34643 0.595592C9.53489 0.441058 9.75826 0.321645 10.0305 0.223305C10.3027 0.124965 10.6029 0.0898438 10.9309 0.0898438C11.4754 0.0898438 11.8942 0.230329 12.1734 0.518324C12.4526 0.792271 12.6062 1.17158 12.6062 1.62114C12.5992 2.0145 12.4735 2.37976 12.2292 2.7099C11.9919 3.04706 11.6987 3.36316 11.3428 3.6652L10.896 4.03046V4.04451H12.6969V5.00684Z" fill="black"/>
</svg>
