<svg width="13" height="12" viewBox="0 0 13 12" fill="none" xmlns="http://www.w3.org/2000/svg">
<g filter="url(#filter0_d_4152_37611)">
<path d="M2.87109 9.125C2.98047 9.125 3.06641 9.16406 3.12891 9.24219C3.20703 9.30469 3.24609 9.39062 3.24609 9.5V11C3.24609 11.1094 3.20703 11.1953 3.12891 11.2578C3.06641 11.3359 2.98047 11.375 2.87109 11.375H1.37109C1.26172 11.375 1.16797 11.3359 1.08984 11.2578C1.02734 11.1953 0.996094 11.1094 0.996094 11V9.5C0.996094 9.39062 1.02734 9.30469 1.08984 9.24219C1.16797 9.16406 1.26172 9.125 1.37109 9.125H2.87109ZM2.87109 1.625C2.98047 1.625 3.06641 1.66406 3.12891 1.74219C3.20703 1.80469 3.24609 1.89062 3.24609 2V3.5C3.24609 3.60938 3.20703 3.70313 3.12891 3.78125C3.06641 3.84375 2.98047 3.875 2.87109 3.875H1.37109C1.26172 3.875 1.16797 3.84375 1.08984 3.78125C1.02734 3.70313 0.996094 3.60938 0.996094 3.5V2C0.996094 1.89062 1.02734 1.80469 1.08984 1.74219C1.16797 1.66406 1.26172 1.625 1.37109 1.625H2.87109ZM2.87109 5.375C2.98047 5.375 3.06641 5.41406 3.12891 5.49219C3.20703 5.55469 3.24609 5.64062 3.24609 5.75V7.25C3.24609 7.35938 3.20703 7.45312 3.12891 7.53125C3.06641 7.59375 2.98047 7.625 2.87109 7.625H1.37109C1.26172 7.625 1.16797 7.59375 1.08984 7.53125C1.02734 7.45312 0.996094 7.35938 0.996094 7.25V5.75C0.996094 5.64062 1.02734 5.55469 1.08984 5.49219C1.16797 5.41406 1.26172 5.375 1.37109 5.375H2.87109ZM12.6211 9.5C12.7305 9.5 12.8164 9.53906 12.8789 9.61719C12.957 9.67969 12.9961 9.76562 12.9961 9.875V10.625C12.9961 10.7344 12.957 10.8281 12.8789 10.9062C12.8164 10.9688 12.7305 11 12.6211 11H5.12109C5.01172 11 4.91797 10.9688 4.83984 10.9062C4.77734 10.8281 4.74609 10.7344 4.74609 10.625V9.875C4.74609 9.76562 4.77734 9.67969 4.83984 9.61719C4.91797 9.53906 5.01172 9.5 5.12109 9.5H12.6211ZM12.6211 2C12.7305 2 12.8164 2.03906 12.8789 2.11719C12.957 2.17969 12.9961 2.26562 12.9961 2.375V3.125C12.9961 3.23438 12.957 3.32813 12.8789 3.40625C12.8164 3.46875 12.7305 3.5 12.6211 3.5H5.12109C5.01172 3.5 4.91797 3.46875 4.83984 3.40625C4.77734 3.32813 4.74609 3.23438 4.74609 3.125V2.375C4.74609 2.26562 4.77734 2.17969 4.83984 2.11719C4.91797 2.03906 5.01172 2 5.12109 2H12.6211ZM12.6211 5.75C12.7305 5.75 12.8164 5.78906 12.8789 5.86719C12.957 5.92969 12.9961 6.01562 12.9961 6.125V6.875C12.9961 6.98438 12.957 7.07812 12.8789 7.15625C12.8164 7.21875 12.7305 7.25 12.6211 7.25H5.12109C5.01172 7.25 4.91797 7.21875 4.83984 7.15625C4.77734 7.07812 4.74609 6.98438 4.74609 6.875V6.125C4.74609 6.01562 4.77734 5.92969 4.83984 5.86719C4.91797 5.78906 5.01172 5.75 5.12109 5.75H12.6211Z" fill="black"/>
</g>
<defs>
<filter id="filter0_d_4152_37611" x="0.996094" y="0.625" width="12" height="10.75" filterUnits="userSpaceOnUse" color-interpolation-filters="sRGB">
<feFlood flood-opacity="0" result="BackgroundImageFix"/>
<feColorMatrix in="SourceAlpha" type="matrix" values="0 0 0 0 0 0 0 0 0 0 0 0 0 0 0 0 0 0 127 0" result="hardAlpha"/>
<feOffset dy="-1"/>
<feColorMatrix type="matrix" values="0 0 0 0 1 0 0 0 0 1 0 0 0 0 1 0 0 0 1 0"/>
<feBlend mode="normal" in2="BackgroundImageFix" result="effect1_dropShadow_4152_37611"/>
<feBlend mode="normal" in="SourceGraphic" in2="effect1_dropShadow_4152_37611" result="shape"/>
</filter>
</defs>
</svg>
