<svg width="396" height="79" viewBox="0 0 396 79" fill="none" xmlns="http://www.w3.org/2000/svg">
<g filter="url(#filter0_d_6355_1879)">
<mask id="path-1-inside-1_6355_1879" fill="white">
<path fill-rule="evenodd" clip-rule="evenodd" d="M3 7.24218C3 4.347 5.34702 2 8.24219 2H369.966C371.843 2 373.576 3.00342 374.511 4.63086L392.469 35.8887C393.397 37.5056 393.397 39.4944 392.469 41.1113L374.511 72.3691C373.576 73.9966 371.843 75 369.966 75H8.24218C5.347 75 3 72.653 3 69.7578V7.24218Z"/>
</mask>
<path fill-rule="evenodd" clip-rule="evenodd" d="M3 7.24218C3 4.347 5.34702 2 8.24219 2H369.966C371.843 2 373.576 3.00342 374.511 4.63086L392.469 35.8887C393.397 37.5056 393.397 39.4944 392.469 41.1113L374.511 72.3691C373.576 73.9966 371.843 75 369.966 75H8.24218C5.347 75 3 72.653 3 69.7578V7.24218Z" fill="white"/>
<path d="M392.469 35.8887L391.332 36.5415V36.5415L392.469 35.8887ZM392.469 41.1113L391.332 40.4585V40.4585L392.469 41.1113ZM374.511 72.3691L373.375 71.7163L374.511 72.3691ZM374.511 4.63086L373.375 5.28369L374.511 4.63086ZM369.966 0.689455H8.24219V3.31054H369.966V0.689455ZM373.375 5.28369L391.332 36.5415L393.605 35.2359L375.648 3.97804L373.375 5.28369ZM391.332 36.5415C392.029 37.7542 392.029 39.2458 391.332 40.4585L393.605 41.7641C394.766 39.7429 394.766 37.2571 393.605 35.2359L391.332 36.5415ZM391.332 40.4585L373.375 71.7163L375.648 73.022L393.605 41.7641L391.332 40.4585ZM8.24218 76.3105H369.966V73.6895H8.24218V76.3105ZM1.68946 7.24218V69.7578H4.31054V7.24218H1.68946ZM373.375 71.7163C372.674 72.9369 371.374 73.6895 369.966 73.6895V76.3105C372.312 76.3105 374.479 75.0563 375.648 73.022L373.375 71.7163ZM8.24219 0.689455C4.62323 0.689455 1.68946 3.62321 1.68946 7.24218H4.31054C4.31054 5.0708 6.07081 3.31054 8.24219 3.31054V0.689455ZM8.24218 73.6895C6.0708 73.6895 4.31054 71.9292 4.31054 69.7578H1.68946C1.68946 73.3768 4.62321 76.3105 8.24218 76.3105V73.6895ZM369.966 3.31054C371.374 3.31054 372.674 4.06311 373.375 5.28369L375.648 3.97804C374.479 1.94373 372.312 0.689455 369.966 0.689455V3.31054Z" fill="#00995D" mask="url(#path-1-inside-1_6355_1879)"/>
</g>
<defs>
<filter id="filter0_d_6355_1879" x="0.378911" y="0.689455" width="395.407" height="78.2422" filterUnits="userSpaceOnUse" color-interpolation-filters="sRGB">
<feFlood flood-opacity="0" result="BackgroundImageFix"/>
<feColorMatrix in="SourceAlpha" type="matrix" values="0 0 0 0 0 0 0 0 0 0 0 0 0 0 0 0 0 0 127 0" result="hardAlpha"/>
<feOffset dy="1.31054"/>
<feGaussianBlur stdDeviation="1.31054"/>
<feColorMatrix type="matrix" values="0 0 0 0 0.215686 0 0 0 0 0.254902 0 0 0 0 0.317647 0 0 0 0.08 0"/>
<feBlend mode="normal" in2="BackgroundImageFix" result="effect1_dropShadow_6355_1879"/>
<feBlend mode="normal" in="SourceGraphic" in2="effect1_dropShadow_6355_1879" result="shape"/>
</filter>
</defs>
</svg>
