<svg width="373" height="79" viewBox="0 0 373 79" fill="none" xmlns="http://www.w3.org/2000/svg">
<g filter="url(#filter0_d_6361_1895)">
<mask id="path-1-inside-1_6361_1895" fill="white">
<path fill-rule="evenodd" clip-rule="evenodd" d="M3.93788 9.85349C1.93018 6.35872 4.45294 2 8.48336 2H364.184C367.079 2 369.426 4.347 369.426 7.24218V69.7578C369.426 72.653 367.079 75 364.184 75H8.48337C4.45295 75 1.93018 70.6413 3.93787 67.1465L18.8947 41.1113C19.8236 39.4944 19.8236 37.5056 18.8947 35.8887L3.93788 9.85349Z"/>
</mask>
<path fill-rule="evenodd" clip-rule="evenodd" d="M3.93788 9.85349C1.93018 6.35872 4.45294 2 8.48336 2H364.184C367.079 2 369.426 4.347 369.426 7.24218V69.7578C369.426 72.653 367.079 75 364.184 75H8.48337C4.45295 75 1.93018 70.6413 3.93787 67.1465L18.8947 41.1113C19.8236 39.4944 19.8236 37.5056 18.8947 35.8887L3.93788 9.85349Z" fill="#FAFAFA"/>
<path d="M18.8947 41.1113L20.0311 41.7641L18.8947 41.1113ZM18.8947 35.8887L17.7583 36.5415L18.8947 35.8887ZM364.184 0.689455H8.48336V3.31054H364.184V0.689455ZM370.737 69.7578V7.24218H368.116V69.7578H370.737ZM8.48337 76.3105H364.184V73.6895H8.48337V76.3105ZM17.7583 40.4585L2.8015 66.4937L5.07424 67.7993L20.0311 41.7641L17.7583 40.4585ZM17.7583 36.5415C18.455 37.7542 18.455 39.2458 17.7583 40.4585L20.0311 41.7641C21.1922 39.7429 21.1922 37.2571 20.0311 35.2359L17.7583 36.5415ZM2.80151 10.5063L17.7583 36.5415L20.0311 35.2359L5.07425 9.20067L2.80151 10.5063ZM8.48337 73.6895C5.46055 73.6895 3.56847 70.4204 5.07424 67.7993L2.8015 66.4937C0.291879 70.8622 3.44534 76.3105 8.48337 76.3105V73.6895ZM368.116 69.7578C368.116 71.9292 366.355 73.6895 364.184 73.6895V76.3105C367.803 76.3105 370.737 73.3768 370.737 69.7578H368.116ZM8.48336 0.689455C3.44533 0.689455 0.291887 6.13786 2.80151 10.5063L5.07425 9.20067C3.56848 6.57958 5.46055 3.31054 8.48336 3.31054V0.689455ZM364.184 3.31054C366.355 3.31054 368.116 5.0708 368.116 7.24218H370.737C370.737 3.62321 367.803 0.689455 364.184 0.689455V3.31054Z" fill="#EEEEEE" mask="url(#path-1-inside-1_6361_1895)"/>
</g>
<defs>
<filter id="filter0_d_6361_1895" x="0.612309" y="0.689455" width="371.435" height="78.2422" filterUnits="userSpaceOnUse" color-interpolation-filters="sRGB">
<feFlood flood-opacity="0" result="BackgroundImageFix"/>
<feColorMatrix in="SourceAlpha" type="matrix" values="0 0 0 0 0 0 0 0 0 0 0 0 0 0 0 0 0 0 127 0" result="hardAlpha"/>
<feOffset dy="1.31054"/>
<feGaussianBlur stdDeviation="1.31054"/>
<feColorMatrix type="matrix" values="0 0 0 0 0.215686 0 0 0 0 0.254902 0 0 0 0 0.317647 0 0 0 0.08 0"/>
<feBlend mode="normal" in2="BackgroundImageFix" result="effect1_dropShadow_6361_1895"/>
<feBlend mode="normal" in="SourceGraphic" in2="effect1_dropShadow_6361_1895" result="shape"/>
</filter>
</defs>
</svg>
