<svg width="22" height="14" viewBox="0 0 22 14" fill="none" xmlns="http://www.w3.org/2000/svg">
<path fill-rule="evenodd" clip-rule="evenodd" d="M1.60649 0H20.3933C21.0023 0 21.5005 0.498167 21.5005 1.10717V1.22617C21.5005 1.83517 21.0023 2.33333 20.3933 2.33333H1.60649C0.997488 2.33333 0.500488 1.83517 0.500488 1.22617V1.10717C0.500488 0.498167 0.997488 0 1.60649 0ZM20.3933 5.83333H1.60649C0.997488 5.83333 0.500488 6.3315 0.500488 6.9405V7.0595C0.500488 7.6685 0.997488 8.16667 1.60649 8.16667H20.3933C21.0023 8.16667 21.5005 7.6685 21.5005 7.0595V6.9405C21.5005 6.3315 21.0023 5.83333 20.3933 5.83333ZM20.3933 11.6667H1.60649C0.997488 11.6667 0.500488 12.1648 0.500488 12.7738V12.8928C0.500488 13.5018 0.997488 14 1.60649 14H20.3933C21.0023 14 21.5005 13.5018 21.5005 12.8928V12.7738C21.5005 12.1648 21.0023 11.6667 20.3933 11.6667Z" fill="#017849"/>
</svg>
