<svg width="21" height="21" viewBox="0 0 21 21" fill="none" xmlns="http://www.w3.org/2000/svg">
<path fill-rule="evenodd" clip-rule="evenodd" d="M10.938 9.23779C10.111 9.23779 9.43799 9.91079 9.43799 10.7378C9.43799 11.5648 10.111 12.2378 10.938 12.2378C11.765 12.2378 12.438 11.5648 12.438 10.7378C12.438 9.91079 11.765 9.23779 10.938 9.23779ZM10.938 14.2378C9.00799 14.2378 7.43799 12.6678 7.43799 10.7378C7.43799 8.80779 9.00799 7.23779 10.938 7.23779C12.868 7.23779 14.438 8.80779 14.438 10.7378C14.438 12.6678 12.868 14.2378 10.938 14.2378ZM19.255 8.11279H18.171C18.024 8.11279 17.924 7.99579 17.863 7.84879C17.817 7.73779 17.805 7.58379 17.91 7.47879L18.68 6.71279C18.998 6.39579 19.174 5.97279 19.174 5.52479C19.174 5.07479 19 4.65279 18.682 4.33579L17.341 2.99479C16.687 2.33879 15.62 2.34079 14.964 2.99479L14.194 3.76579C14.09 3.87079 13.936 3.85779 13.791 3.79779C13.681 3.75279 13.563 3.65179 13.563 3.50479V2.41379C13.563 1.48979 12.812 0.737793 11.887 0.737793H9.99499C9.06699 0.737793 8.31299 1.49279 8.31299 2.42079V3.50479C8.31299 3.65179 8.19599 3.75179 8.04899 3.81279C7.93799 3.85979 7.78299 3.87179 7.67899 3.76579L6.91399 2.99679C6.59599 2.67779 6.17399 2.50279 5.72499 2.50279H5.72299C5.27399 2.50279 4.85199 2.67679 4.53499 2.99479L3.19499 4.33479C2.53999 4.98879 2.53999 6.05479 3.19499 6.71179L3.96599 7.48179C4.06999 7.58579 4.05799 7.74079 3.99799 7.88479C3.95299 7.99479 3.85199 8.11279 3.70499 8.11279H2.61399C1.68999 8.11279 0.937988 8.86379 0.937988 9.78879V11.6808C0.937988 12.6088 1.69299 13.3628 2.62099 13.3628H3.70499C3.85199 13.3628 3.95199 13.4798 4.01299 13.6268C4.05899 13.7378 4.07099 13.8918 3.96599 13.9968L3.19699 14.7618C2.87799 15.0798 2.70299 15.5018 2.70299 15.9508C2.70199 16.4008 2.87699 16.8228 3.19499 17.1408L4.53499 18.4808C5.18899 19.1368 6.25599 19.1348 6.91199 18.4808L7.68199 17.7098C7.78699 17.6068 7.94099 17.6188 8.08499 17.6778C8.19499 17.7228 8.31299 17.8238 8.31299 17.9708V19.0618C8.31299 19.9858 9.06399 20.7378 9.98899 20.7378H11.881C12.809 20.7378 13.563 19.9828 13.563 19.0548V17.9708C13.563 17.8238 13.68 17.7238 13.827 17.6628C13.937 17.6168 14.092 17.6048 14.197 17.7098L14.962 18.4788C15.28 18.7978 15.702 18.9728 16.151 18.9728H16.153C16.602 18.9728 17.024 18.7988 17.341 18.4808L18.681 17.1408C19.336 16.4868 19.336 15.4208 18.681 14.7638L17.91 13.9938C17.806 13.8898 17.818 13.7348 17.865 13.6238C17.865 13.6218 17.878 13.5918 17.878 13.5908C17.923 13.4808 18.024 13.3628 18.171 13.3628H19.262C20.186 13.3628 20.938 12.6118 20.938 11.6868V9.79479C20.938 8.86679 20.183 8.11279 19.255 8.11279Z" fill="white"/>
</svg>
