<svg width="373" height="79" viewBox="0 0 373 79" fill="none" xmlns="http://www.w3.org/2000/svg">
<g filter="url(#filter0_d_6978_1935)">
<mask id="path-1-inside-1_6978_1935" fill="white">
<path fill-rule="evenodd" clip-rule="evenodd" d="M3.93885 9.85349C1.93116 6.35872 4.45391 2 8.48433 2H364.185C367.08 2 369.427 4.347 369.427 7.24218V69.7578C369.427 72.653 367.08 75 364.185 75H8.48434C4.45392 75 1.93115 70.6413 3.93885 67.1465L18.8957 41.1113C19.8246 39.4944 19.8246 37.5056 18.8957 35.8887L3.93885 9.85349Z"/>
</mask>
<path fill-rule="evenodd" clip-rule="evenodd" d="M3.93885 9.85349C1.93116 6.35872 4.45391 2 8.48433 2H364.185C367.08 2 369.427 4.347 369.427 7.24218V69.7578C369.427 72.653 367.08 75 364.185 75H8.48434C4.45392 75 1.93115 70.6413 3.93885 67.1465L18.8957 41.1113C19.8246 39.4944 19.8246 37.5056 18.8957 35.8887L3.93885 9.85349Z" fill="white"/>
<path d="M18.8957 41.1113L20.0321 41.7641L18.8957 41.1113ZM18.8957 35.8887L17.7593 36.5415L18.8957 35.8887ZM364.185 0.689455H8.48433V3.31054H364.185V0.689455ZM370.738 69.7578V7.24218H368.117V69.7578H370.738ZM8.48434 76.3105H364.185V73.6895H8.48434V76.3105ZM17.7593 40.4585L2.80248 66.4937L5.07522 67.7993L20.0321 41.7641L17.7593 40.4585ZM17.7593 36.5415C18.456 37.7542 18.456 39.2458 17.7593 40.4585L20.0321 41.7641C21.1932 39.7429 21.1932 37.2571 20.0321 35.2359L17.7593 36.5415ZM2.80248 10.5063L17.7593 36.5415L20.0321 35.2359L5.07523 9.20067L2.80248 10.5063ZM8.48434 73.6895C5.46152 73.6895 3.56945 70.4204 5.07522 67.7993L2.80248 66.4937C0.292856 70.8622 3.44632 76.3105 8.48434 76.3105V73.6895ZM368.117 69.7578C368.117 71.9292 366.356 73.6895 364.185 73.6895V76.3105C367.804 76.3105 370.738 73.3768 370.738 69.7578H368.117ZM8.48433 0.689455C3.44631 0.689455 0.292863 6.13786 2.80248 10.5063L5.07523 9.20067C3.56945 6.57958 5.46152 3.31054 8.48433 3.31054V0.689455ZM364.185 3.31054C366.356 3.31054 368.117 5.0708 368.117 7.24218H370.738C370.738 3.62321 367.804 0.689455 364.185 0.689455V3.31054Z" fill="#017849" mask="url(#path-1-inside-1_6978_1935)"/>
</g>
<defs>
<filter id="filter0_d_6978_1935" x="0.613286" y="0.689455" width="371.435" height="78.2422" filterUnits="userSpaceOnUse" color-interpolation-filters="sRGB">
<feFlood flood-opacity="0" result="BackgroundImageFix"/>
<feColorMatrix in="SourceAlpha" type="matrix" values="0 0 0 0 0 0 0 0 0 0 0 0 0 0 0 0 0 0 127 0" result="hardAlpha"/>
<feOffset dy="1.31054"/>
<feGaussianBlur stdDeviation="1.31054"/>
<feColorMatrix type="matrix" values="0 0 0 0 0.215686 0 0 0 0 0.254902 0 0 0 0 0.317647 0 0 0 0.08 0"/>
<feBlend mode="normal" in2="BackgroundImageFix" result="effect1_dropShadow_6978_1935"/>
<feBlend mode="normal" in="SourceGraphic" in2="effect1_dropShadow_6978_1935" result="shape"/>
</filter>
</defs>
</svg>
