<svg width="393" height="79" viewBox="0 0 393 79" fill="none" xmlns="http://www.w3.org/2000/svg">
<g filter="url(#filter0_d_6978_1919)">
<mask id="path-1-inside-1_6978_1919" fill="white">
<path fill-rule="evenodd" clip-rule="evenodd" d="M371.569 4.63087C370.634 3.00342 368.901 2 367.024 2H8.1152C4.08478 2 1.56201 6.35871 3.56971 9.85348L18.5265 35.8887C19.4555 37.5056 19.4555 39.4944 18.5265 41.1113L3.56971 67.1465C1.56202 70.6413 4.08477 75 8.11519 75H367.024C368.901 75 370.634 73.9966 371.569 72.3691L389.526 41.1113C390.455 39.4944 390.455 37.5056 389.526 35.8887L371.569 4.63087Z"/>
</mask>
<path fill-rule="evenodd" clip-rule="evenodd" d="M371.569 4.63087C370.634 3.00342 368.901 2 367.024 2H8.1152C4.08478 2 1.56201 6.35871 3.56971 9.85348L18.5265 35.8887C19.4555 37.5056 19.4555 39.4944 18.5265 41.1113L3.56971 67.1465C1.56202 70.6413 4.08477 75 8.11519 75H367.024C368.901 75 370.634 73.9966 371.569 72.3691L389.526 41.1113C390.455 39.4944 390.455 37.5056 389.526 35.8887L371.569 4.63087Z" fill="#00995D"/>
<path d="M18.5265 35.8887L17.3902 36.5415L18.5265 35.8887ZM18.5265 41.1113L19.6629 41.7641H19.6629L18.5265 41.1113ZM389.526 41.1113L388.39 40.4585V40.4585L389.526 41.1113ZM389.526 35.8887L388.39 36.5415V36.5415L389.526 35.8887ZM3.56971 67.1465L2.43334 66.4937L3.56971 67.1465ZM371.569 4.63087L370.433 5.2837L371.569 4.63087ZM371.569 72.3691L370.433 71.7163L371.569 72.3691ZM3.56971 9.85348L2.43334 10.5063H2.43334L3.56971 9.85348ZM8.1152 3.31054H367.024V0.689455H8.1152V3.31054ZM19.6629 35.2359L4.70608 9.20066L2.43334 10.5063L17.3902 36.5415L19.6629 35.2359ZM19.6629 41.7641C20.8241 39.7429 20.8241 37.2571 19.6629 35.2359L17.3902 36.5415C18.0869 37.7542 18.0869 39.2458 17.3902 40.4585L19.6629 41.7641ZM4.70609 67.7993L19.6629 41.7641L17.3902 40.4585L2.43334 66.4937L4.70609 67.7993ZM367.024 73.6895H8.11519V76.3105H367.024V73.6895ZM388.39 40.4585L370.433 71.7163L372.706 73.022L390.663 41.7641L388.39 40.4585ZM388.39 36.5415C389.087 37.7542 389.087 39.2458 388.39 40.4585L390.663 41.7641C391.824 39.7429 391.824 37.2571 390.663 35.2359L388.39 36.5415ZM370.433 5.2837L388.39 36.5415L390.663 35.2359L372.706 3.97804L370.433 5.2837ZM2.43334 66.4937C-0.0762763 70.8621 3.07717 76.3105 8.11519 76.3105V73.6895C5.09238 73.6895 3.20031 70.4204 4.70609 67.7993L2.43334 66.4937ZM367.024 3.31054C368.432 3.31054 369.732 4.06311 370.433 5.2837L372.706 3.97804C371.537 1.94374 369.37 0.689455 367.024 0.689455V3.31054ZM367.024 76.3105C369.37 76.3105 371.537 75.0563 372.706 73.022L370.433 71.7163C369.732 72.9369 368.432 73.6895 367.024 73.6895V76.3105ZM8.1152 0.689455C3.07718 0.689455 -0.0762858 6.13784 2.43334 10.5063L4.70608 9.20066C3.20031 6.57958 5.09238 3.31054 8.1152 3.31054V0.689455Z" fill="#00995D" mask="url(#path-1-inside-1_6978_1919)"/>
</g>
<defs>
<filter id="filter0_d_6978_1919" x="0.244145" y="0.689455" width="392.601" height="78.2422" filterUnits="userSpaceOnUse" color-interpolation-filters="sRGB">
<feFlood flood-opacity="0" result="BackgroundImageFix"/>
<feColorMatrix in="SourceAlpha" type="matrix" values="0 0 0 0 0 0 0 0 0 0 0 0 0 0 0 0 0 0 127 0" result="hardAlpha"/>
<feOffset dy="1.31054"/>
<feGaussianBlur stdDeviation="1.31054"/>
<feColorMatrix type="matrix" values="0 0 0 0 0.215686 0 0 0 0 0.254902 0 0 0 0 0.317647 0 0 0 0.08 0"/>
<feBlend mode="normal" in2="BackgroundImageFix" result="effect1_dropShadow_6978_1919"/>
<feBlend mode="normal" in="SourceGraphic" in2="effect1_dropShadow_6978_1919" result="shape"/>
</filter>
</defs>
</svg>
